<svg version="1.1" id="Layer_1" xmlns="http://www.w3.org/2000/svg"
	xmlns:xlink="http://www.w3.org/1999/xlink" x="0px" y="0px"
	width="1000px" height="1000px" viewBox="0 0 1000 1000"
	style="enable-background:new 0 0 1000 1000;" xml:space="preserve">
<style type="text/css">
	.st0{fill:none;stroke:#1A75BC;stroke-width:5;stroke-linecap:round;stroke-miterlimit:10;}
	.st1{fill:#1A75BC;}
	.st2{fill:none;stroke:#2C2B30;stroke-width:5;stroke-linecap:round;stroke-miterlimit:10;}
	.st3{fill:#2C2B30;}
	.st4{fill:#0B873F;}
	.st5{fill:#33A543;}
	.st6{fill:#F47320;}
	.st7{fill:#F79031;}
	.st8{fill:#DD691C;}
	.st9{fill:#3182CE;}
</style>
<g>
	<g>
		<g>
			<line class="st0" x1="491.1" y1="525.1" x2="553" y2="472.8"/>
			<line class="st0" x1="566.1" y1="461.6" x2="590.5" y2="441.1"/>
			<circle class="st1" cx="590.5" cy="441.1" r="13.9"/>
		</g>
		<g>
			<line class="st0" x1="508.7" y1="617.9" x2="570.6" y2="565.6"/>
			<line class="st0" x1="582.8" y1="555.4" x2="602" y2="539.1"/>
			<circle class="st1" cx="602" cy="539.1" r="16.6"/>
		</g>
		<g>
			<line class="st0" x1="789.1" y1="869.4" x2="811.4" y2="850.6"/>
			<line class="st0" x1="823.5" y1="840.3" x2="847.9" y2="819.7"/>
			<circle class="st1" cx="848.9" cy="818.9" r="16.6"/>
		</g>
		<g>
			<line class="st0" x1="839.6" y1="929.3" x2="885.3" y2="890.7"/>
			<circle class="st1" cx="885.3" cy="890.7" r="10"/>
		</g>
		<g>
			<line class="st0" x1="607.9" y1="626.2" x2="646.4" y2="593.7"/>
			<circle class="st1" cx="646.4" cy="593.7" r="23.2"/>
		</g>
		<g>
			<line class="st0" x1="767.8" y1="797" x2="798.3" y2="771.3"/>
			<circle class="st1" cx="798.3" cy="771.3" r="23.2"/>
		</g>
		<g>
			<line class="st0" x1="679.4" y1="717" x2="754.4" y2="653.6"/>
			<circle class="st1" cx="756.5" cy="651.9" r="28.5"/>
		</g>
		<g>
			<line class="st2" x1="535.6" y1="544.8" x2="602.5" y2="488.3"/>
			<g>
				<circle class="st3" cx="602.5" cy="488.3" r="16.6"/>
			</g>
		</g>
		<g>
			<line class="st2" x1="455.7" y1="497.6" x2="522.7" y2="441"/>
			<g>
				<circle class="st3" cx="522.7" cy="441" r="16.6"/>
			</g>
		</g>
		<g>
			<line class="st2" x1="681.2" y1="628.6" x2="709.6" y2="604.6"/>
			<line class="st2" x1="636.6" y1="666.3" x2="669" y2="638.9"/>
			<g>
				<circle class="st3" cx="709.6" cy="604.6" r="25.9"/>
			</g>
		</g>
		<g>
			<line class="st2" x1="762.5" y1="737.2" x2="790.9" y2="713.2"/>
			<line class="st2" x1="724" y1="769.8" x2="749.3" y2="748.3"/>
			<g>
				<circle class="st3" cx="790.9" cy="713.2" r="25.9"/>
			</g>
		</g>
		<g>
			<line class="st2" x1="825.1" y1="889.4" x2="870.7" y2="850.9"/>
			<g>
				<circle class="st3" cx="870.7" cy="850.9" r="10"/>
			</g>
		</g>
		<g>
			<circle class="st3" cx="784.2" cy="826.6" r="20.6"/>
		</g>
		<g>
			<circle class="st3" cx="590.5" cy="597.5" r="19.2"/>
		</g>
	</g>
	<g>
		<path class="st4" d="M453.3,274.6l10.1,3.7c0,0-7.8,3.1-16,44.3c8.9,30.8,40.2,95.5,47.9,111.4c-17.4,8.7-27.3,18.5-27.3,18.5
			l5.3,6.2L450.5,479l-121.8-78.3c0,0-34.7-2-42.8,4.9c-3.6-2.2-3.3-5.9-3.3-5.9s20.7-10.5,29-8.9c8.3,1.6-107.3-57.9-107.3-57.9
			l5.4-7.2l89.4,34.4c0,0-14.4-19.6-15.8-25.4c-1.4-5.8,6.9-4.1,6.9-4.1s31.4,41.3,40.4,45.8c9,4.5,96.2,54.2,96.2,54.2
			S288.8,281.5,257.7,213.9c-22-7.5-28.3-10.9-37.5-13.5c-8.2-3.5-0.4-6.6-0.4-6.6l28.4,9c-13.2-21.8-33.1-65.9-33.1-65.9l9.4-8
			c0,0,42.2,77.3,56.1,91.6c-1.2-7.6-5.6-23.1-5.6-23.1l6.5,0.9c0,0,4.4,26.4,21.8,50.8c30.6,42.8,150,169.6,159.9,175.2
			c-10-26.3-39.3-104.1-42.8-127.7c-6.8-11.1-23.4-26.7-23.4-26.7l4.2-5.3c0,0,10.6,8.4,14.2,10.6c-2.5-15.3-9.7-54.7-8.3-70.5
			c4.4-6.1,9.8-3.8,9.8-3.8s19.5,93,25.3,102C447.1,292,453.3,274.6,453.3,274.6z"/>
		<g>
			<path class="st5" d="M298.4,396.8c-11.6-1.9-17.5-6.4-20.8-10.2c-0.9-1-4-5.4-10.1-14c-3.3-4.7-5.2-7.3-8.7-8.3
				c-3-0.8-7.3-0.3-8.7,2.1c-2,3.5,3.5,9,1.9,10.5c-1.1,1.1-4.2-1.6-11.9-3.8c-3.1-0.9-6.9-1.7-11.2-0.9c-3.9,0.7-4.7,2-4.9,2.4
				c-1.1,2.3,1.1,5.4,1.4,5.8c1.5,2,3.5,2.8,4.4,3.2c6.9,2.8,14.7,6,14.5,6.9c-0.1,0.5-3,0-6.6,0.4c-7.8,0.9-15.4,6.1-14.9,9.1
				c0.4,2.3,5.5,3.1,8.2,3.5c9.8,1.6,13.8-2.2,25.6-2.6c6.2-0.2,13.8,0.6,14,2.1c0.2,1.5-7.1,3.5-8.8,4c-10.1,2.7-20.2,3-38.7,1.5
				c-13.1-1.1-20.7,0.1-24.6,1.7c-1.3,1.6-2.3,4.2-1.5,6.5c3.4,4.1,18.2,7.2,18.2,7.2s-7.9,2.4-20.5,8.6
				c-11.3,5.6-16.9,10.8-16.2,13.7c0.7,2.9,7.1,3.6,13.8,4c13.7,0.8,24.7-13.6,26.4-11.9c1.3,1.3-7.1,8.7-5.2,16.5
				c1.1,4.3,5.1,8.2,8.7,8.3c5.9,0.2,4.2-13.1,15.3-25.1c4.6-5,4.8-2.7,19.1-14.4c7.1-5.8,10.7-9.3,12-8.4c1.3,0.9,0,5.7-2.7,9.2
				c-2.4,3.2-4.9,3.8-10,6.7c-6.9,3.9-13.5,7.6-13.2,11.1c0.3,3,5.4,6,9.9,5.5c6.9-0.6,11-9,12-8.4c1.3,0.8-8.4,13.4-4.5,19.4
				c1.8,2.8,6.4,4.2,9.2,2.7c6-3.2,1.6-19.1,5.5-20.3c3-0.9,7.2,8.2,9.7,7.4c2.1-0.7,0.2-7.3,0.6-17.9c0.2-6.9,0.7-17.4,7-26.7
				C294.4,400.5,296.7,398.2,298.4,396.8z"/>
			<path class="st5" d="M216.9,329.9c-11.2,4.5-16.9,10.3-20.1,15c-0.9,1.3-3.9,6.4-9.9,16.6c-3.2,5.5-5,8.7-8.5,10.4
				c-2.9,1.5-7,1.9-8.3-0.3c-1.9-3.2,3.4-10,1.9-11.2c-1.1-0.9-4.1,2.6-11.5,6.5c-3,1.6-6.6,3.2-10.8,3.4c-3.8,0.2-4.5-1-4.7-1.4
				c-1.1-2.1,1.1-5.7,1.4-6.2c1.5-2.4,3.4-3.7,4.3-4.2c6.7-4.4,14.2-9.3,14-10.2c-0.1-0.5-2.9,0.7-6.4,1c-7.5,0.7-14.8-3-14.3-6.1
				c0.4-2.4,5.3-4.4,7.9-5.4c9.4-3.7,13.3-0.7,24.7-2.9c5.9-1.1,13.3-3.6,13.5-5.2c0.2-1.6-6.9-2.1-8.5-2.2
				c-9.7-0.6-19.5,1.3-37.3,6.9c-12.6,4-20,4.4-23.7,3.6c-1.2-1.3-2.2-3.8-1.4-6.3c3.3-4.9,17.6-11.3,17.6-11.3s-7.6-0.7-19.7-4.4
				c-10.9-3.3-16.2-7.4-15.5-10.6c0.7-3.1,6.9-5.2,13.3-7.1c13.2-3.8,23.8,8.5,25.4,6.5c1.3-1.6-6.8-7.4-4.9-15.8
				c1-4.6,5-9.5,8.5-10.4c5.7-1.5,4,12.5,14.6,22.4c4.4,4.1,4.6,1.7,18.3,10.6c6.8,4.4,10.3,7.3,11.5,6c1.2-1.2,0-5.9-2.5-8.9
				c-2.3-2.8-4.7-2.9-9.6-4.7c-6.7-2.5-13-4.9-12.6-8.6c0.3-3.1,5.3-7.3,9.6-7.8c6.6-0.8,10.6,6.9,11.5,6c1.3-1.1-8-11.9-4.2-19
				c1.7-3.2,6.2-5.7,8.9-4.7c5.8,2,1.4,19.3,5.1,19.6c2.9,0.3,7-10,9.4-9.7c2,0.2,0.2,7.5,0.4,18.2c0.2,7.1,0.5,17.8,6.5,25.9
				C213.1,326.9,215.3,328.8,216.9,329.9z"/>
			<path class="st5" d="M225,141.7c-12.9-6.1-23.2-7-30.4-6.6c-1.9,0.1-9.4,0.9-24.3,2.5c-8,0.8-12.6,1.4-16.9-0.3
				c-3.7-1.4-7.2-4.4-6-6.7c1.8-3.5,12.7-3.5,12.9-5.4c0.1-1.4-5.7-1.6-15.3-5.1c-3.8-1.4-8.3-3.2-11.6-6.4c-3-2.9-2.4-4.2-2.1-4.6
				c1.3-2.2,6.7-2.7,7.4-2.7c3.5-0.3,6.3,0.4,7.6,0.8c9.5,2.6,20.1,5.5,20.9,4.8c0.5-0.4-2.9-1.8-5.9-4.4c-6.4-5.5-8.2-13.5-4.6-15
				c2.7-1.2,8.4,1.5,11.4,2.9c10.9,5.1,10.7,10,21.6,17.7c5.6,4,13.6,8.3,15.4,7.4c1.8-0.9-3.1-6.7-4.2-8
				c-6.7-8-15.9-14.5-35.1-25.2c-13.5-7.5-19.5-13.1-21.5-16.5c0.5-1.8,2.2-4.1,5.4-5c7.5-0.4,24.8,6.9,24.8,6.9s-5-6.4-10.4-18.3
				c-4.8-10.6-4.7-17.4-1-18.8c3.7-1.4,10.5,2.2,17.2,6.1c13.8,8.1,9.2,24,12.5,24c2.6,0,2.4-9.9,12.4-13.6c5.5-2,13.3-1.9,16.9,0.3
				c5.8,3.6-9.7,10.9-11.8,25.3c-0.9,6,1.7,4.7,3,21c0.6,8.1,0.3,12.6,2.6,12.8c2.1,0.2,6-3.6,7.1-7.4c1.1-3.5-0.6-5.4-2.4-10.5
				c-2.5-6.8-4.8-13.2-0.8-15.2c3.4-1.7,11.3-0.4,15.2,2.7c5.8,4.7,0.9,12.6,2.6,12.8c2.1,0.3,6.1-13.6,16.1-15
				c4.6-0.6,10.4,1.4,11.5,4.1c2.3,5.8-18.4,13-16,16.1c1.9,2.4,15.4-0.7,17,1.5c1.3,1.7-7.5,4.7-18.2,11.5
				c-7.1,4.5-17.6,11.4-21.4,21.1C225.1,136.9,225,139.8,225,141.7z"/>
			<path class="st5" d="M226.6,199.9c-7.6-9-9.4-16.4-9.7-21.7c-0.1-1.4,0.1-6.9,0.5-18c0.2-5.9,0.4-9.3-1.8-12.4
				c-1.8-2.6-5.3-4.9-7.7-3.8c-3.5,1.6-2.6,9.6-4.6,9.9c-1.5,0.2-2.2-4-6.7-10.8c-1.8-2.7-4.1-5.8-7.8-8c-3.3-2-4.7-1.4-5.1-1.2
				c-2.2,1.2-2.3,5.1-2.3,5.6c0,2.6,1,4.6,1.5,5.5c3.6,6.7,7.5,14.3,6.9,14.9c-0.4,0.4-2.2-2-5.2-3.9c-6.3-4.2-15.1-4.9-16.4-2.1
				c-1,2.1,2.3,6,4.1,8.1c6.4,7.5,11.6,7,20.6,14.3c4.7,3.8,10,9.3,9.2,10.7c-0.8,1.4-7.4-1.7-8.9-2.4c-9.1-4.2-16.8-10.5-29.8-23.6
				c-9.2-9.3-15.6-13.2-19.4-14.4c-1.8,0.5-4.2,2-4.8,4.3c0.2,5.5,9.5,17.6,9.5,17.6s-7.3-3.1-20.3-6.1c-11.7-2.7-18.9-2-20,0.8
				c-1.1,2.8,3.2,7.5,8,12.1c9.7,9.4,26.3,4.7,26.6,7.2c0.3,1.9-10.3,2.6-13.4,10.2c-1.7,4.2-0.9,9.9,1.8,12.4
				c4.3,4,10.7-8,25.9-10.7c6.3-1.1,5.1,0.8,22.6,0.4c8.7-0.2,13.4-0.8,13.8,0.8c0.4,1.5-3.3,4.7-7.3,5.8c-3.7,1.1-5.8,0-11.3-0.9
				c-7.4-1.3-14.5-2.4-16.3,0.7c-1.5,2.6,0.6,8.3,4.2,10.9c5.5,3.9,13.4-0.4,13.8,0.8c0.5,1.5-13.9,5.6-14.5,13
				c-0.3,3.4,2.4,7.5,5.3,8.1c6.4,1.2,12.2-14.6,15.7-13.1c2.8,1.2,0.6,11.3,3,12.3c1.9,0.8,4.4-5.9,10.7-14.2
				c4.2-5.5,10.5-13.8,20.6-17.4C221.5,200.3,224.6,200,226.6,199.9z"/>
			<path class="st5" d="M279.2,207.8c7.2-9.3,14.1-12.7,19.2-14c1.4-0.4,6.8-1.3,17.7-3.3c5.8-1,9.2-1.6,11.7-4.3
				c2.2-2.3,3.7-6.2,2.1-8.3c-2.3-3.1-9.9-0.5-10.6-2.4c-0.5-1.4,3.4-3,9.1-8.8c2.3-2.3,4.8-5.3,6.1-9.3c1.2-3.7,0.4-4.9,0.1-5.2
				c-1.6-1.9-5.5-1.1-6-1c-2.6,0.5-4.3,2-5,2.6c-5.8,4.9-12.4,10.4-13.1,9.9c-0.5-0.3,1.4-2.6,2.7-5.9c2.8-7.1,1.6-15.7-1.4-16.4
				c-2.3-0.5-5.4,3.6-7.1,5.7c-6,7.8-4.4,12.8-9.7,23.2c-2.7,5.4-7,11.7-8.5,11.2c-1.5-0.5,0.1-7.6,0.5-9.2
				c2.2-9.8,6.7-18.7,16.8-34.1c7.1-10.9,9.6-18,10-22c-0.9-1.7-2.8-3.6-5.3-3.8c-5.3,1.4-15.2,13-15.2,13s1.5-7.7,1.7-21.1
				c0.1-12-2-18.9-5-19.4s-6.6,4.7-10.1,10.4c-7.1,11.5,0.9,26.7-1.4,27.5c-1.8,0.7-4.7-9.5-12.8-10.9c-4.4-0.8-9.9,1.2-11.7,4.3
				c-3,5.1,10.1,8.8,15.9,23c2.4,5.9,0.3,5.2,4.3,22.2c2,8.4,3.6,12.9,2.1,13.7c-1.4,0.7-5.2-2.3-7.2-5.9c-1.8-3.3-1.2-5.7-1.5-11.3
				c-0.3-7.5-0.7-14.6-4.1-15.8c-2.9-0.9-8,2.4-9.7,6.4c-2.6,6.2,3.2,13.1,2.1,13.7c-1.4,0.8-8.4-12.5-15.8-11.4
				c-3.4,0.5-6.8,3.9-6.8,6.9c0.2,6.5,16.8,8.9,16.1,12.6c-0.6,2.9-11,3-11.4,5.5c-0.4,2,6.7,3,16.2,7.4c6.3,2.9,15.7,7.4,21.4,16.4
				C277.6,202.8,278.6,205.8,279.2,207.8z"/>
			<path class="st5" d="M410.9,212.2c7-8.5,13.8-12.1,18.8-13.7c1.4-0.4,6.7-1.8,17.4-4.5c5.7-1.5,9-2.3,11.5-4.8
				c2.1-2.2,3.6-5.6,2-7.2c-2.3-2.4-9.8,0.6-10.5-1c-0.5-1.1,3.4-2.9,8.9-8.3c2.2-2.2,4.7-4.9,6-8.5c1.2-3.2,0.3-4.1,0-4.4
				c-1.6-1.4-5.4-0.4-5.9-0.3c-2.5,0.7-4.2,2.1-4.9,2.7c-5.7,4.7-12.1,10-12.8,9.6c-0.5-0.2,1.4-2.3,2.7-5.2
				c2.7-6.2,1.4-13.4-1.5-13.7c-2.2-0.2-5.3,3.5-6.9,5.5c-5.9,7.2-4.3,11.2-9.3,20.5c-2.6,4.8-6.8,10.5-8.3,10.3
				c-1.5-0.2,0-6.4,0.4-7.8c2.1-8.4,6.4-16.3,16.3-30.3c6.9-9.9,9.3-16.1,9.6-19.5c-0.9-1.3-2.8-2.8-5.2-2.7
				c-5.2,1.7-14.8,12.4-14.8,12.4s1.4-6.7,1.4-17.9c0-10.1-2.2-15.6-5.1-15.8c-2.9-0.1-6.5,4.6-9.9,9.7c-6.9,10.4,1.1,22.3-1.2,23.3
				c-1.8,0.7-4.7-7.5-12.7-7.9c-4.4-0.2-9.7,2-11.5,4.8c-2.9,4.6,10,6.3,15.9,17.7c2.4,4.7,0.3,4.3,4.4,18.2
				c2.1,6.9,3.6,10.5,2.2,11.3c-1.4,0.8-5.2-1.4-7.2-4.2c-1.8-2.6-1.3-4.7-1.6-9.3c-0.4-6.3-0.8-12.2-4.2-12.8
				c-2.8-0.5-7.9,2.8-9.5,6.4c-2.5,5.5,3.2,10.7,2.2,11.3c-1.3,0.8-8.4-9.6-15.6-8c-3.3,0.7-6.7,4-6.6,6.5c0.2,5.4,16.6,5.7,16,9
				c-0.5,2.5-10.8,3.6-11.2,5.8c-0.3,1.8,6.6,1.9,16,4.6c6.2,1.8,15.6,4.6,21.2,11.7C409.4,208.2,410.4,210.6,410.9,212.2z"/>
			<path class="st5" d="M456.2,284.4c-2.6-8.7-6.7-13.5-10-16.3c-0.9-0.8-4.5-3.5-11.8-8.9c-3.9-2.9-6.2-4.6-7.2-7.3
				c-0.9-2.3-1-5.4,0.7-6.1c2.5-1.1,7.3,3.5,8.3,2.5c0.7-0.7-1.7-3.3-4.2-9.1c-1-2.4-2-5.2-1.9-8.3c0.1-2.8,1.1-3.2,1.3-3.3
				c1.7-0.6,4.2,1.4,4.6,1.6c1.7,1.3,2.5,2.9,2.9,3.6c2.9,5.4,6.1,11.4,6.8,11.4c0.4,0-0.3-2.2-0.4-4.8c-0.1-5.6,3.1-10.6,5.5-9.9
				c1.8,0.5,2.9,4.4,3.5,6.4c2.2,7.3-0.3,9.9,0.7,18.5c0.5,4.5,1.8,10.2,3.1,10.4c1.2,0.3,2-4.9,2.1-6c1.1-7.1,0.2-14.5-2.9-28.2
				c-2.2-9.7-2-15.2-1.2-17.9c1.1-0.7,3-1.2,4.8-0.4c3.5,2.9,7.4,14.1,7.4,14.1s1-5.5,4.5-14.1c3.2-7.7,6.6-11.2,8.9-10.4
				c2.3,0.8,3.5,5.6,4.5,10.5c2,10.1-7.9,16.7-6.4,18.1c1.1,1.1,5.9-4.3,12.1-2c3.4,1.2,6.8,4.6,7.2,7.3c0.8,4.4-9.6,1.7-17.7,8.5
				c-3.3,2.8-1.6,3.2-9.1,12.5c-3.7,4.6-6.1,6.8-5.2,7.9c0.8,1,4.4,0.6,6.8-1c2.2-1.4,2.4-3.2,4.1-6.6c2.3-4.7,4.4-9.1,7.2-8.5
				c2.3,0.5,5.1,4.6,5.3,7.8c0.2,5-5.8,7.1-5.2,7.9c0.8,1,9.4-4.7,14.4-1.2c2.3,1.6,3.8,5.1,3,7c-1.9,4.1-14.5-0.8-15,1.8
				c-0.4,2.1,7.1,6.1,6.7,7.9c-0.3,1.4-5.6-0.6-13.6-1.5c-5.3-0.6-13.3-1.4-19.8,2.2C458.6,281.8,457.1,283.3,456.2,284.4z"/>
			<path class="st5" d="M403.9,271.7c-9.9-2-16.9-0.6-21.4,1.1c-1.2,0.5-5.9,2.6-15.2,6.8c-5,2.3-7.8,3.6-11.1,3.2
				c-2.8-0.3-5.8-1.9-5.6-3.9c0.3-3,7.4-5.2,7-6.7c-0.3-1.1-4.1-0.1-11.2-0.8c-2.8-0.3-6.2-0.8-9.2-2.6c-2.7-1.6-2.6-2.7-2.5-3.1
				c0.3-1.9,3.6-3.4,4.1-3.6c2.2-1,4.2-0.9,5.1-0.9c6.8,0.1,14.4,0.1,14.8-0.6c0.2-0.4-2.3-0.8-4.9-2.2c-5.5-2.9-8.7-8.7-6.8-10.6
				c1.5-1.4,5.9-0.5,8.2-0.1c8.4,1.7,9.5,5.5,18.5,9.2c4.7,1.9,10.9,3.6,11.9,2.6c0.9-1-3.7-4.5-4.7-5.3c-6.4-4.8-14-7.9-29.2-12.2
				c-10.7-3-16-6.1-18.2-8.3c-0.1-1.4,0.4-3.6,2.2-4.9c4.8-1.8,17.8,0.3,17.8,0.3s-4.9-3.9-11.3-11.9c-5.8-7.2-7.4-12.4-5.4-14.2
				s7.4-0.4,12.7,1.2c11,3.4,12,16.5,14.2,15.9c1.7-0.5-0.9-8.1,4.6-12.9c3.1-2.7,8.2-4.2,11.1-3.2c4.7,1.6-3.6,10.3-1.3,21.7
				c1,4.8,2.3,3.3,7.2,15.5c2.5,6.1,3.4,9.5,4.9,9.3c1.4-0.3,3-4,2.7-7.1c-0.2-2.9-1.8-4-4.2-7.5c-3.3-4.7-6.5-9.1-4.4-11.5
				c1.8-2,7.3-2.6,10.5-1c5,2.4,3.8,9.4,4.9,9.3c1.4-0.2,0.5-11.6,6.7-14.7c2.8-1.4,7.1-1,8.5,0.8c3,4-8.7,13.7-6.3,15.6
				c1.8,1.5,9.9-3.6,11.4-2.3c1.2,1.1-3.7,5.1-8.9,12.5c-3.5,4.9-8.6,12.2-8.6,20.5C402.7,267.9,403.3,270.2,403.9,271.7z"/>
			<path class="st5" d="M292.2,337.1c-10.7-4.8-19-5-24.6-4.2c-1.5,0.2-7.3,1.4-18.9,3.8c-6.2,1.3-9.8,2.1-13.4,0.8
				c-3-1.1-6.1-3.6-5.3-5.9c1.1-3.3,9.7-4.1,9.6-5.8c0-1.3-4.6-1.2-12.5-3.7c-3.2-1-6.8-2.5-9.7-5.3c-2.6-2.5-2.2-3.8-2.1-4.1
				c0.9-2.1,5-2.9,5.6-3c2.8-0.5,5,0,6,0.2c7.7,1.8,16.4,3.8,16.9,3.1c0.3-0.4-2.4-1.5-5-3.7c-5.5-4.7-7.7-12.1-5-13.7
				c2.1-1.3,6.8,0.9,9.3,2c9.1,4.1,9.4,8.6,18.7,15.1c4.8,3.4,11.5,6.8,12.8,5.9c1.3-0.9-3-6-4-7.2c-6-7-13.9-12.5-30-21.2
				c-11.4-6.1-16.6-10.9-18.5-14c0.2-1.7,1.4-4,3.8-5c5.9-0.8,20.2,4.9,20.2,4.9s-4.5-5.7-9.8-16.4c-4.8-9.6-5.3-15.9-2.5-17.4
				c2.8-1.5,8.5,1.4,14.1,4.6c11.6,6.6,9.5,21.8,12.1,21.6c2.1-0.1,1-9.4,8.5-13.5c4.1-2.2,10.3-2.6,13.4-0.8c4.9,3-6.7,10.7-7,24.3
				c-0.1,5.6,1.8,4.3,4.3,19.4c1.3,7.5,1.4,11.7,3.2,11.8c1.7,0.1,4.4-3.7,4.9-7.4c0.5-3.4-1-5-2.9-9.6c-2.6-6.2-5-12-2-14.2
				c2.5-1.8,8.9-1,12.2,1.6c5,4,1.9,11.7,3.2,11.8c1.7,0.1,3.5-13.1,11.3-15c3.6-0.9,8.3,0.7,9.4,3.1c2.4,5.3-13.3,13.3-11.2,16.1
				c1.7,2.2,12.1-1.6,13.5,0.3c1.1,1.5-5.5,4.9-13.3,11.9c-5.2,4.6-12.8,11.7-14.9,21.1C291.9,332.6,292,335.3,292.2,337.1z"/>
		</g>
	</g>
	<g>
		<path class="st6" d="M468,452.5c0,0-96.2,69.2-12.4,193s305.8,262.1,363.3,295.2s79.6,22.2,79.6,22.2L468,452.5z"/>
	</g>
	<g>
		<circle class="st7" cx="521.2" cy="592.6" r="39.8"/>
		<g>
			<path class="st8" d="M534.4,548.5c2.7,1.2-83.8,63.8-95.7,61.8c-1.1-0.2-2.2-0.4-3.3-0.7c-1.9-4.3-3.6-8.5-5.1-12.6
				c0.9-0.5,1.9-0.9,3.1-1.3C448,590.2,531.6,547.3,534.4,548.5z"/>
			<path class="st8" d="M589.6,642.6c0.6,2.6-72.4,49.5-89.5,57.6c-4.5-4.7-8.8-9.5-13-14.3C502,677.4,588.9,640,589.6,642.6z"/>
			<path class="st8" d="M676.4,730.9c1.7,0.1-58.6,46.6-81.1,56.2c-5-4-9.9-8.1-14.9-12.2C596.8,767.2,674.7,730.8,676.4,730.9z"/>
			<path class="st8" d="M758.7,816c-12.5,19.9-45.4,39.7-60.2,47.9c-3.7-2.5-7.4-5.1-11.2-7.7C711.6,846.6,773.3,792.7,758.7,816z"
				/>
			<path class="st8" d="M846.9,910.1c-0.1,1.4-22.5,19.6-32.7,27.9c0,0,0,0,0,0c-3.1-1.8-6.6-3.9-10.4-6.1
				C815.4,925.1,847,908.5,846.9,910.1z"/>
		</g>
	</g>
</g>
</svg>